PathFileType	4	(X/Y/Z)	\\Move.snu.ac.kr\motion\Animal\091204_091205_Bird\091205_bird\Project 2\Capture day 2\Session 1\pigeon_027.trc
DataRate	CameraRate	NumFrames	NumMarkers	Units	OrigDataRate	OrigDataStartFrame	OrigNumFrames
240.0	240.0	8	14	mm	240.0	278	2723
Frame#	Time	14MarkersBird:Head			14MarkersBird:C_back			14MarkersBird:Spine			14MarkersBird:L-shoulder			14MarkersBird:L-elbow			14MarkersBird:L-wrist			14MarkersBird:L-hand			14MarkersBird:R-shoulder			14MarkersBird:R-elbow			14MarkersBird:R-Wrist			14MarkersBird:R-hand			14MarkersBird:C_Tail			14MarkersBird:L-Tale			14MarkersBird:R-Tale			
		X1	Y1	Z1	X2	Y2	Z2	X3	Y3	Z3	X4	Y4	Z4	X5	Y5	Z5	X6	Y6	Z6	X7	Y7	Z7	X8	Y8	Z8	X9	Y9	Z9	X10	Y10	Z10	X11	Y11	Z11	X12	Y12	Z12	X13	Y13	Z13	X14	Y14	Z14	

1691	7.042	-1521.46680	915.45239	2173.01855	-1487.24817	887.08862	2122.77246	-1457.88794	837.28925	2081.88647	-1482.48779	898.86047	2148.74585	-1463.71033	894.08722	2114.13428	-1460.94812	931.45801	2137.25659	-1439.53369	925.21082	2153.16284	-1513.35840	898.49091	2127.89185	-1490.00171	896.66772	2096.33667	-1518.77649	927.01538	2101.35132	-1552.63818	915.62476	2092.82080	-1433.98145	727.86395	2067.08838	-1376.58960	803.57507	2128.58154	-1535.49854	784.06958	2026.98181	
1692	7.046	-1527.36035	913.63110	2183.06128	-1494.24280	884.30084	2134.56152	-1464.20496	834.19971	2092.55542	-1488.70447	896.19818	2159.11133	-1474.76294	893.08746	2120.93140	-1468.65894	931.86029	2141.45605	-1442.47668	926.64984	2147.92505	-1518.32703	895.89008	2138.24731	-1492.45129	895.55035	2109.47754	-1517.99109	928.11841	2109.72656	-1545.71326	919.03210	2088.23535	-1438.56213	726.02216	2075.28979	-1381.29053	801.55652	2137.58838	-1539.41968	783.89514	2033.90393	
1693	7.050	-1533.18250	911.74359	2192.95459	-1500.94763	881.44135	2145.89380	-1470.56860	831.14612	2103.21899	-1494.85437	893.60016	2169.46973	-1484.58313	892.36243	2129.84473	-1475.13965	931.86621	2147.68457	-1448.28870	928.97473	2143.83423	-1523.88574	892.92102	2148.43311	-1497.47571	894.45007	2122.18823	-1519.17773	928.60468	2118.38135	-1536.70264	923.32605	2086.74854	-1442.32373	724.51099	2082.03345	-1385.81482	799.35614	2146.12451	-1543.40173	783.49011	2041.04004	
1694	7.054	-1538.93115	909.75104	2202.70679	-1507.26648	878.53967	2156.60449	-1476.97278	828.12994	2113.87256	-1500.82019	890.93542	2179.85889	-1492.37061	891.39001	2141.31274	-1479.18591	931.28461	2156.13379	-1455.38977	932.06281	2143.27759	-1530.18323	889.58539	2158.36792	-1504.09424	893.30957	2134.31543	-1523.15527	928.14478	2126.09326	-1528.85254	927.96246	2088.78076	-1445.39441	723.41748	2087.80566	-1390.39697	797.10309	2154.71729	-1547.88501	782.55127	2049.02393	
1695	7.058	-1544.61707	907.61121	2212.31665	-1513.10315	875.62555	2166.53052	-1483.41138	825.15289	2124.51172	-1506.52588	888.14636	2190.29224	-1497.91980	889.83807	2154.65430	-1480.36646	929.58502	2166.69604	-1461.32019	935.10657	2148.01904	-1537.04700	885.87439	2167.96704	-1511.99243	891.99677	2145.50342	-1530.23828	926.15118	2132.10107	-1526.01672	931.80487	2093.24316	-1448.04236	722.73853	2093.23804	-1395.14478	795.11249	2163.76440	-1552.95947	781.17242	2057.87744	
1696	7.063	-1550.25720	905.30994	2221.76782	-1518.36340	872.72791	2175.51025	-1489.87756	822.21667	2135.13232	-1511.98853	885.26324	2200.70190	-1501.63000	887.75061	2168.39697	-1479.32690	926.20178	2179.15503	-1463.90466	936.80518	2158.53467	-1544.13867	881.86725	2177.22681	-1520.86792	890.14886	2155.52588	-1540.20117	922.05090	2136.58398	-1530.92993	933.25256	2098.41821	-1450.57178	722.35107	2098.95435	-1400.08765	793.72693	2173.46899	-1558.39319	779.70490	2067.19946	
1697	7.067	-1555.85547	902.88605	2231.04834	-1523.00024	869.85632	2183.46655	-1496.36584	819.32275	2145.72998	-1517.30957	882.35376	2210.91113	-1504.11768	885.20911	2181.64160	-1477.51343	921.00555	2193.43848	-1462.73938	935.91302	2174.08521	-1551.19727	877.85217	2186.29150	-1530.54480	887.51929	2164.10547	-1552.45361	915.68378	2140.69702	-1543.84399	930.81244	2103.48462	-1453.19336	722.02399	2105.45557	-1405.24280	793.13086	2183.85571	-1563.89038	778.37238	2076.61743	
1698	7.071	-1561.40125	900.41681	2240.16260	-1527.38757	866.83722	2191.09009	-1502.86951	816.47278	2156.29980	-1522.62671	879.52161	2220.73877	-1505.94568	882.24060	2194.58472	-1476.47034	914.39868	2209.62720	-1459.63489	931.93134	2193.63745	-1558.14624	874.19000	2195.40381	-1540.87512	884.03400	2170.99756	-1566.36450	907.45624	2145.99609	-1562.89600	923.98877	2109.26196	-1455.97473	721.49188	2113.05566	-1410.59302	793.31744	2194.74023	-1569.25391	777.04266	2086.01196	
